<svg width="107" height="45" viewBox="0 0 107 45" fill="none" xmlns="http://www.w3.org/2000/svg">
<path d="M15.9319 7.5011C17.2007 7.48533 18.4658 7.63964 19.6934 7.95988C20.7085 8.22035 21.6636 8.67409 22.5061 9.29613C23.2559 9.86252 23.8603 10.5983 24.2697 11.443C24.6759 12.3509 24.8859 13.334 24.8859 14.3282C24.8859 15.3225 24.6759 16.3056 24.2697 17.2134C23.8595 18.057 23.2552 18.7919 22.5061 19.3581C21.6633 19.9797 20.7083 20.4334 19.6934 20.6944C18.465 21.0195 17.1983 21.1776 15.9275 21.1643H9.90017V27.0171H5.85742V7.5011H15.9319ZM9.90464 9.59233V19.0686H15.9163C17.3867 19.0686 18.5274 18.6833 19.3385 17.9127C20.1495 17.1422 20.5551 15.9477 20.5551 14.3294C20.5551 12.7125 20.1495 11.5188 19.3385 10.7482C18.5274 9.97762 17.3867 9.58937 15.9163 9.58343L9.90464 9.59233Z" fill="white"/>
<path d="M38.4072 14.4695H35.0475C33.7825 14.4695 32.8152 14.8087 32.1455 15.4873C31.4758 16.1658 31.1402 17.1739 31.1387 18.5117V27.0125H27.2344V18.5117C27.2344 16.6142 27.8349 15.1413 29.0359 14.0931C30.2369 13.0449 31.9647 12.52 34.2193 12.5186H38.4094L38.4072 14.4695Z" fill="white"/>
<path d="M47.6294 11.9595C48.7993 11.9492 49.9635 12.1244 51.0783 12.4784C52.0717 12.7893 52.9898 13.3019 53.775 13.9839C54.5326 14.6606 55.129 15.4975 55.5207 16.4337C56.3612 18.5819 56.3612 20.9668 55.5207 23.115C55.1267 24.0467 54.5305 24.8796 53.775 25.5536C52.9891 26.2347 52.0712 26.7471 51.0783 27.0591C48.823 27.7464 46.4134 27.7464 44.1581 27.0591C43.1716 26.7449 42.2599 26.2325 41.4793 25.5536C40.724 24.8781 40.1286 24.0436 39.7359 23.1105C38.8953 20.9624 38.8953 18.5774 39.7359 16.4292C40.1275 15.4931 40.724 14.6561 41.4815 13.9794C42.2614 13.2995 43.1733 12.787 44.1603 12.4739C45.2802 12.1184 46.4498 11.9439 47.6249 11.9573M47.6249 25.7652C48.2 25.7692 48.7698 25.6555 49.2992 25.4311C49.8337 25.1972 50.3039 24.8381 50.6698 24.3844C51.0993 23.8333 51.417 23.2039 51.6052 22.5315C52.0693 20.721 52.0693 18.8232 51.6052 17.0127C51.4192 16.3376 51.103 15.7052 50.6743 15.1509C50.3082 14.6979 49.838 14.3396 49.3036 14.1064C48.773 13.8862 48.204 13.7729 47.6294 13.7729C47.0547 13.7729 46.4857 13.8862 45.9551 14.1064C45.4204 14.3389 44.9501 14.6973 44.5845 15.1509C44.1541 15.7023 43.8364 16.3326 43.6491 17.0061C43.185 18.8165 43.185 20.7144 43.6491 22.5248C43.8363 23.1976 44.1541 23.8271 44.5845 24.3777C44.95 24.8319 45.4203 25.191 45.9551 25.4245C46.4851 25.6492 47.0557 25.7629 47.6316 25.7585" fill="white"/>
<path d="M59.3621 27.0125V7.50098H63.2731V12.5186H66.7667C67.9546 12.5044 69.1375 12.6735 70.2737 13.0197C71.2601 13.3181 72.1763 13.8112 72.9681 14.4695C73.7065 15.0921 74.2942 15.8732 74.687 16.7545C75.4852 18.6798 75.4852 20.8424 74.687 22.7677C74.2942 23.649 73.7065 24.4301 72.9681 25.0527C72.1764 25.7126 71.2602 26.2079 70.2737 26.5092C69.1375 26.8554 67.9546 27.0245 66.7667 27.0103L59.3621 27.0125ZM66.7667 25.0616C67.3615 25.068 67.9526 24.9684 68.5124 24.7676C69.0362 24.5752 69.5036 24.2552 69.8719 23.8367C70.2817 23.3573 70.5859 22.7973 70.7648 22.1931C71.1934 20.6045 71.1934 18.9311 70.7648 17.3425C70.5859 16.7382 70.2817 16.1783 69.8719 15.6989C69.5008 15.2784 69.0305 14.9569 68.5034 14.7635C67.9433 14.5645 67.3523 14.4658 66.7578 14.4718H63.2731V25.0616H66.7667Z" fill="white"/>
<path d="M86.8823 25.6186C87.7577 25.6256 88.6262 25.4645 89.4406 25.1442C90.2742 24.8041 91.0587 24.3547 91.7734 23.8079L92.8895 25.4805C92.5096 25.8151 92.0924 26.105 91.6461 26.3446C91.1564 26.6114 90.6421 26.8307 90.1103 26.9993C89.5481 27.1791 88.9736 27.3183 88.3914 27.4158C87.8016 27.5177 87.2041 27.5691 86.6055 27.5695C85.38 27.5835 84.1597 27.41 82.9869 27.055C81.967 26.7481 81.0211 26.2357 80.2077 25.5495C79.4339 24.883 78.823 24.0489 78.4218 23.1108C77.9865 22.0516 77.773 20.9148 77.7945 19.7702C77.773 18.6281 77.977 17.493 78.395 16.4296C78.7644 15.4988 79.3371 14.6619 80.0715 13.9798C80.813 13.3076 81.6865 12.7964 82.6364 12.4787C83.6889 12.1244 84.7938 11.9497 85.9046 11.962C86.9802 11.9542 88.0497 12.1235 89.07 12.4631C90.0162 12.7739 90.8901 13.2715 91.6394 13.9263C92.3699 14.579 92.9573 15.3751 93.365 16.2648C93.8064 17.2357 94.0259 18.2923 94.0079 19.3582V21.3091H82.0783C82.3016 22.8532 82.8366 23.9594 83.6834 24.6275C84.5302 25.2956 85.5965 25.626 86.8823 25.6186ZM85.9046 13.7727C85.3855 13.7684 84.8714 13.8731 84.3955 14.08C83.9141 14.2967 83.4961 14.6325 83.1811 15.0555C82.7986 15.576 82.5142 16.1616 82.3418 16.7837C82.1093 17.6184 81.9922 18.4808 81.9935 19.3471H89.8067C89.823 18.4991 89.7101 17.6535 89.4718 16.8394C89.2878 16.2094 88.9897 15.6184 88.5923 15.0956C88.26 14.6657 87.8289 14.322 87.3355 14.0934C86.8841 13.8849 86.3931 13.7755 85.8956 13.7727" fill="white"/>
<path d="M101.131 7.50098H97.2197V27.0125H101.131V7.50098Z" fill="white"/>
<path d="M105.926 10.4031H105.609L105.027 9.67258H104.748V10.4031H104.502V8.56794H104.977C105.066 8.56714 105.154 8.5731 105.241 8.58576C105.314 8.59757 105.383 8.62492 105.444 8.66593C105.508 8.70493 105.561 8.7593 105.598 8.82406C105.637 8.8991 105.656 8.98252 105.654 9.06681C105.658 9.18711 105.621 9.3053 105.551 9.4031C105.48 9.49616 105.383 9.56656 105.272 9.60577L105.926 10.4031ZM105.397 9.08463C105.398 9.03579 105.389 8.9873 105.37 8.94209C105.35 8.90067 105.319 8.86532 105.281 8.83965C105.244 8.81613 105.203 8.80022 105.16 8.79288C105.104 8.78112 105.046 8.77589 104.989 8.77729H104.748V9.46991H104.971C105.034 9.47014 105.098 9.46417 105.16 9.4521C105.214 9.44011 105.263 9.41395 105.303 9.37638C105.338 9.34121 105.365 9.29857 105.381 9.25166C105.4 9.1979 105.408 9.14132 105.406 9.08463" fill="white"/>
<path d="M105.044 7.50098C104.658 7.50098 104.28 7.6154 103.958 7.82977C103.636 8.04414 103.386 8.34883 103.238 8.70532C103.09 9.06181 103.051 9.45407 103.126 9.83252C103.202 10.211 103.388 10.5586 103.662 10.8314C103.935 11.1043 104.284 11.2901 104.663 11.3654C105.042 11.4406 105.435 11.402 105.793 11.2543C106.15 11.1067 106.455 10.8566 106.67 10.5358C106.885 10.215 107 9.83777 107 9.45191C106.999 8.93467 106.793 8.43879 106.427 8.07304C106.06 7.7073 105.563 7.50157 105.044 7.50098ZM105.044 11.0933C104.719 11.0937 104.401 10.9978 104.13 10.8177C103.859 10.6377 103.648 10.3815 103.523 10.0816C103.398 9.7817 103.365 9.4516 103.428 9.13306C103.491 8.81452 103.648 8.52185 103.878 8.29208C104.108 8.0623 104.401 7.90576 104.72 7.84225C105.04 7.77873 105.37 7.81111 105.671 7.93527C105.972 8.05944 106.229 8.26981 106.41 8.53978C106.591 8.80975 106.687 9.12718 106.687 9.45191C106.687 9.88666 106.514 10.3035 106.206 10.6111C105.898 10.9187 105.48 11.0921 105.044 11.0933Z" fill="white"/>
<path d="M85.2951 34.4515C77.6136 34.6163 67.3561 33.8925 53.7277 31.4694C8.71724 23.4719 0 37.5004 0 37.5004C0 37.5004 5.06739 32.8123 21.7027 32.0128C29.3841 31.848 39.6417 32.5718 53.2701 34.9949C98.2738 42.9901 107 28.9595 107 28.9595C107 28.9595 101.933 33.6364 85.2951 34.447" fill="#C3A86F"/>
</svg>
